<svg width="35" height="34" viewBox="0 0 35 34" fill="none" xmlns="http://www.w3.org/2000/svg">
<rect width="35" height="34" rx="7" fill="#3B82F6" fill-opacity="0.08"/>
<path d="M20.6666 14.3335C21.7275 14.3335 22.7449 14.7549 23.4951 15.5051C24.2452 16.2552 24.6666 17.2726 24.6666 18.3335V23.0002H22V18.3335C22 17.9799 21.8595 17.6407 21.6094 17.3907C21.3594 17.1406 21.0202 17.0002 20.6666 17.0002C20.313 17.0002 19.9739 17.1406 19.7238 17.3907C19.4738 17.6407 19.3333 17.9799 19.3333 18.3335V23.0002H16.6666V18.3335C16.6666 17.2726 17.0881 16.2552 17.8382 15.5051C18.5883 14.7549 19.6058 14.3335 20.6666 14.3335Z" stroke="#60A5FA" stroke-width="1.33333"/>
<path d="M11.3334 15H14V23H11.3334V15Z" stroke="#60A5FA" stroke-width="1.33333"/>
<path d="M12.6667 13.0002C13.4031 13.0002 14 12.4032 14 11.6668C14 10.9304 13.4031 10.3335 12.6667 10.3335C11.9303 10.3335 11.3334 10.9304 11.3334 11.6668C11.3334 12.4032 11.9303 13.0002 12.6667 13.0002Z" stroke="#60A5FA" stroke-width="1.33333"/>
</svg>
